<svg width="154" height="39" viewBox="0 0 154 39" fill="none" xmlns="http://www.w3.org/2000/svg">
<g clip-path="url(#clip0_9_85)">
<path fill-rule="evenodd" clip-rule="evenodd" d="M24.2779 11.601C22.7156 10.5572 20.8789 10 19 10V0.5C22.7578 0.5 26.4313 1.61433 29.5558 3.70208C32.6804 5.78982 35.1156 8.75722 36.5537 12.229C37.9917 15.7008 38.368 19.5211 37.6349 23.2067C36.9018 26.8923 35.0922 30.2778 32.435 32.935C29.7778 35.5922 26.3923 37.4018 22.7067 38.1349C19.0211 38.868 15.2008 38.4917 11.729 37.0537C8.25721 35.6156 5.28982 33.1804 3.20208 30.0558C1.11433 26.9313 0 23.2578 0 19.5H9.5C9.5 21.3789 10.0572 23.2156 11.101 24.7779C12.1449 26.3402 13.6286 27.5578 15.3645 28.2769C17.1004 28.9959 19.0105 29.184 20.8534 28.8174C22.6962 28.4509 24.3889 27.5461 25.7175 26.2175C27.0461 24.8889 27.9509 23.1962 28.3174 21.3534C28.684 19.5105 28.4959 17.6004 27.7769 15.8645C27.0578 14.1286 25.8402 12.6449 24.2779 11.601Z" fill="#007DFC"/>
<path fill-rule="evenodd" clip-rule="evenodd" d="M9.49999 0.500005C9.49999 1.74756 9.25428 2.9829 8.77685 4.1355C8.29943 5.28809 7.59967 6.33536 6.71751 7.21752C5.83536 8.09968 4.78809 8.79944 3.63549 9.27686C2.4829 9.75428 1.24755 10 4.15254e-07 10L0 19.5C2.49511 19.5 4.9658 19.0086 7.27099 18.0537C9.57618 17.0989 11.6707 15.6993 13.435 13.935C15.1993 12.1708 16.5989 10.0762 17.5537 7.77099C18.5086 5.4658 19 2.99511 19 0.5L9.49999 0.500005Z" fill="#007DFC"/>
<path d="M43.488 27.5V10.652H48.336L53.064 22.316L57.744 10.652H62.568V27.5H58.464V17.396L54.696 27.5H51.384L47.592 17.372V27.5H43.488ZM64.2233 20.78C64.2233 16.556 66.8393 13.916 70.1273 13.916C72.1193 13.916 73.5353 14.828 74.2553 16.004V14.108H78.3593V27.5H74.2553V25.604C73.5113 26.78 72.0953 27.692 70.1033 27.692C66.8393 27.692 64.2233 25.004 64.2233 20.78ZM74.2553 20.804C74.2553 18.668 72.8873 17.492 71.3273 17.492C69.7913 17.492 68.3993 18.644 68.3993 20.78C68.3993 22.916 69.7913 24.116 71.3273 24.116C72.8873 24.116 74.2553 22.94 74.2553 20.804ZM91.7203 23.612C91.7203 25.94 89.6563 27.692 86.2963 27.692C82.7203 27.692 80.3203 25.7 80.1283 23.108H84.1843C84.2803 24.044 85.1203 24.668 86.2483 24.668C87.3043 24.668 87.8563 24.188 87.8563 23.588C87.8563 21.428 80.5603 22.988 80.5603 18.068C80.5603 15.788 82.5043 13.916 86.0083 13.916C89.4643 13.916 91.3843 15.836 91.6483 18.476H87.8563C87.7363 17.564 87.0403 16.964 85.8883 16.964C84.9283 16.964 84.4003 17.348 84.4003 17.996C84.4003 20.132 91.6483 18.62 91.7203 23.612ZM92.8391 13.94V10.652H105.871V13.94H101.407V27.5H97.3031V13.94H92.8391ZM120.555 20.804C120.555 25.052 117.483 27.692 113.547 27.692C109.611 27.692 106.635 25.052 106.635 20.804C106.635 16.556 109.683 13.916 113.595 13.916C117.531 13.916 120.555 16.556 120.555 20.804ZM110.811 20.804C110.811 23.06 112.059 24.14 113.547 24.14C115.011 24.14 116.379 23.06 116.379 20.804C116.379 18.524 115.035 17.468 113.595 17.468C112.107 17.468 110.811 18.524 110.811 20.804ZM128.564 10.652C133.94 10.652 137.396 14.06 137.396 19.076C137.396 24.068 133.94 27.5 128.564 27.5H122.252V10.652H128.564ZM126.356 23.948H128.3C131.396 23.948 133.22 22.172 133.22 19.076C133.22 15.98 131.396 14.156 128.3 14.156H126.356V23.948ZM152.314 20.804C152.314 25.052 149.242 27.692 145.306 27.692C141.37 27.692 138.394 25.052 138.394 20.804C138.394 16.556 141.442 13.916 145.354 13.916C149.29 13.916 152.314 16.556 152.314 20.804ZM142.57 20.804C142.57 23.06 143.818 24.14 145.306 24.14C146.77 24.14 148.138 23.06 148.138 20.804C148.138 18.524 146.794 17.468 145.354 17.468C143.866 17.468 142.57 18.524 142.57 20.804Z" fill="#007DFC"/>
</g>
<defs>
<clipPath id="clip0_9_85">
<rect width="154" height="38" fill="white" transform="translate(0 0.5)"/>
</clipPath>
</defs>
</svg>
